<svg xmlns="http://www.w3.org/2000/svg" viewBox="0 0 800 600" preserveAspectRatio="xMidYMid slice">
  <defs>
    <linearGradient id="bg" x1="0" y1="0" x2="1" y2="1">
      <stop offset="0%" stop-color="#f8ead9"/>
      <stop offset="50%" stop-color="#d4a173"/>
      <stop offset="100%" stop-color="#86583b"/>
    </linearGradient>
    <radialGradient id="sun" cx="50%" cy="25%" r="60%">
      <stop offset="0%" stop-color="#fff2cb" stop-opacity="0.95"/>
      <stop offset="100%" stop-color="#fff2cb" stop-opacity="0"/>
    </radialGradient>
  </defs>
  <rect width="800" height="600" fill="url(#bg)"/>
  <circle cx="660" cy="105" r="78" fill="#ffe3a1" opacity="0.9"/>
  <circle cx="660" cy="105" r="145" fill="url(#sun)"/>
  <rect x="96" y="140" width="608" height="280" rx="44" fill="#fff1e3" opacity="0.18"/>
  <rect x="140" y="178" width="190" height="220" rx="26" fill="#fff8f0" opacity="0.22"/>
  <rect x="356" y="160" width="110" height="238" rx="22" fill="#fff8f0" opacity="0.16"/>
  <rect x="500" y="186" width="170" height="188" rx="24" fill="#fff8f0" opacity="0.20"/>
  <rect x="238" y="310" width="330" height="18" rx="9" fill="#8f5f3d" opacity="0.44"/>
  <path d="M274 330 h104 a24 24 0 0 1 24 24 v14 h-152 v-14 a24 24 0 0 1 24 -24z" fill="#8f5f3d"/>
  <path d="M414 334 h78 a18 18 0 0 1 18 18 v12 h-114 v-12 a18 18 0 0 1 18 -18z" fill="#d29b6b"/>
  <path d="M255 255 q28 -34 56 0 q-28 30 -56 0Z" fill="#fff0d2" opacity="0.48"/>
  <path d="M430 247 q30 -36 60 0 q-30 32 -60 0Z" fill="#fff0d2" opacity="0.34"/>
  <path d="M0 482 C160 442, 320 446, 490 482 C620 508, 720 508, 800 490 L800 600 L0 600 Z" fill="#6f4a31" opacity="0.26"/>
</svg>