<svg xmlns="http://www.w3.org/2000/svg" viewBox="0 0 800 600" preserveAspectRatio="xMidYMid slice">
  <defs>
    <linearGradient id="bg" x1="0" y1="0" x2="1" y2="1">
      <stop offset="0%" stop-color="#edf6ea"/>
      <stop offset="55%" stop-color="#9cc79b"/>
      <stop offset="100%" stop-color="#58785d"/>
    </linearGradient>
    <radialGradient id="sun" cx="50%" cy="24%" r="60%">
      <stop offset="0%" stop-color="#fff5bc" stop-opacity="0.95"/>
      <stop offset="100%" stop-color="#fff5bc" stop-opacity="0"/>
    </radialGradient>
  </defs>
  <rect width="800" height="600" fill="url(#bg)"/>
  <circle cx="620" cy="108" r="74" fill="#ffe4a4" opacity="0.92"/>
  <circle cx="620" cy="108" r="146" fill="url(#sun)"/>
  <path d="M0 486 L122 348 L244 486 Z" fill="#5f815f"/>
  <path d="M198 486 L344 286 L490 486 Z" fill="#86ae82"/>
  <path d="M434 486 L568 330 L702 486 Z" fill="#5f815f"/>
  <path d="M646 486 L732 358 L800 486 Z" fill="#9bc399"/>
  <path d="M0 512 C140 484, 280 484, 420 510 C560 536, 690 536, 800 508 L800 600 L0 600 Z" fill="#3d5f43" opacity="0.34"/>
  <path d="M86 514 C182 492, 270 492, 366 514" stroke="#ffffff" stroke-width="7" opacity="0.24" fill="none"/>
  <path d="M426 514 C520 492, 620 492, 716 514" stroke="#ffffff" stroke-width="7" opacity="0.18" fill="none"/>
</svg>