<svg xmlns="http://www.w3.org/2000/svg" viewBox="0 0 800 600" preserveAspectRatio="xMidYMid slice">
  <defs>
    <linearGradient id="bg" x1="0" y1="0" x2="1" y2="1">
      <stop offset="0%" stop-color="#e4f7da"/>
      <stop offset="50%" stop-color="#8dd691"/>
      <stop offset="100%" stop-color="#3c8058"/>
    </linearGradient>
    <radialGradient id="sun" cx="50%" cy="25%" r="60%">
      <stop offset="0%" stop-color="#fff3b4" stop-opacity="0.95"/>
      <stop offset="100%" stop-color="#fff3b4" stop-opacity="0"/>
    </radialGradient>
  </defs>
  <rect width="800" height="600" fill="url(#bg)"/>
  <circle cx="650" cy="102" r="72" fill="#ffe69d" opacity="0.85"/>
  <circle cx="650" cy="102" r="140" fill="url(#sun)"/>
  <path d="M0 450 C140 424, 260 430, 400 458 C540 486, 678 482, 800 448 L800 600 L0 600 Z" fill="#5ea15f" opacity="0.30"/>
  <path d="M0 500 C150 470, 290 470, 420 500 C550 528, 690 528, 800 500 L800 600 L0 600 Z" fill="#4d8452" opacity="0.48"/>
  <g>
    <path d="M90 470 L140 330 L190 470 Z" fill="#4f9f69"/>
    <path d="M260 470 L320 290 L380 470 Z" fill="#6bc07a"/>
    <path d="M440 470 L500 320 L560 470 Z" fill="#4f9f69"/>
    <path d="M620 470 L680 304 L740 470 Z" fill="#6bc07a"/>
    <rect x="188" y="416" width="134" height="30" rx="15" fill="#8b6b4a"/>
    <rect x="404" y="408" width="150" height="30" rx="15" fill="#8b6b4a"/>
    <rect x="222" y="406" width="14" height="44" rx="7" fill="#8b6b4a"/>
    <rect x="448" y="398" width="14" height="44" rx="7" fill="#8b6b4a"/>
    <path d="M168 394 h80" stroke="#fff" stroke-width="5" opacity="0.34"/>
    <path d="M460 384 h80" stroke="#fff" stroke-width="5" opacity="0.34"/>
  </g>
  <path d="M86 500 C184 476, 262 476, 360 500" stroke="#ffffff" stroke-width="7" opacity="0.20" fill="none"/>
</svg>