<svg xmlns="http://www.w3.org/2000/svg" viewBox="0 0 800 600" preserveAspectRatio="xMidYMid slice">
  <defs>
    <linearGradient id="bg" x1="0" y1="0" x2="1" y2="1">
      <stop offset="0%" stop-color="#dff6ff"/>
      <stop offset="55%" stop-color="#79c1e5"/>
      <stop offset="100%" stop-color="#2d6f9b"/>
    </linearGradient>
    <radialGradient id="sun" cx="50%" cy="23%" r="60%">
      <stop offset="0%" stop-color="#fff0b3" stop-opacity="0.95"/>
      <stop offset="100%" stop-color="#fff0b3" stop-opacity="0"/>
    </radialGradient>
  </defs>
  <rect width="800" height="600" fill="url(#bg)"/>
  <circle cx="640" cy="110" r="74" fill="#ffe49d" opacity="0.96"/>
  <circle cx="640" cy="110" r="148" fill="url(#sun)"/>
  <path d="M0 326 C120 294, 240 294, 360 326 C480 358, 600 360, 800 326 L800 600 L0 600 Z" fill="#6ac0e4" opacity="0.26"/>
  <path d="M0 410 C120 382, 240 382, 360 410 C480 438, 600 438, 800 410" stroke="#fff" stroke-width="10" opacity="0.52" fill="none"/>
  <path d="M0 466 C120 440, 240 440, 360 466 C480 492, 600 492, 800 466" stroke="#fff" stroke-width="8" opacity="0.30" fill="none"/>
  <path d="M0 508 C140 482, 280 482, 420 510 C560 538, 700 538, 800 510 L800 600 L0 600 Z" fill="#2b6e98" opacity="0.48"/>
  <path d="M84 392 h92 v34 h-92z" fill="#805538" opacity="0.88"/>
  <rect x="118" y="424" width="14" height="88" rx="7" fill="#805538"/>
  <path d="M0 560 C130 534, 260 534, 390 560 C520 586, 650 586, 800 560" stroke="#fff" stroke-width="7" opacity="0.20" fill="none"/>
</svg>